<svg width="0" height="0" class="hidden">
  <symbol xmlns="http://www.w3.org/2000/svg" viewBox="0 0 19.03 25" id="location">
    <path d="M17.05 3.71A9.485 9.485 0 1 0 1.94 15.18L9.5 25l7.55-9.82a9.437 9.437 0 0 0 0-11.47zm-7.55.56a4.945 4.945 0 1 1-4.97 4.95A4.97 4.97 0 0 1 9.5 4.27z" fill="#151515" fill-rule="evenodd"></path>
  </symbol>
  <symbol xmlns="http://www.w3.org/2000/svg" viewBox="0 0 22 14" id="mail">
    <path d="M1.61 0a1.531 1.531 0 0 0-.6.12l9.34 7.97a.911.911 0 0 0 1.28 0L20.98.11a1.629 1.629 0 0 0-.59-.11H1.61zM.02 1.38a1.953 1.953 0 0 0-.02.23v10.77A1.611 1.611 0 0 0 1.61 14h18.78A1.611 1.611 0 0 0 22 12.38V1.61a1.953 1.953 0 0 0-.02-.23l-9.3 7.94a2.6 2.6 0 0 1-3.37 0z"
      fill="#151515" fill-rule="evenodd"></path>
  </symbol>
  <symbol xmlns="http://www.w3.org/2000/svg" viewBox="0 0 22 22.03" id="phone">
    <path d="M5.98.56l2.63 2.73a1.718 1.718 0 0 1 0 2.53l-2 2.1a16.784 16.784 0 0 0 7.47 7.57l2.11-2.1a1.835 1.835 0 0 1 2.63 0l2.63 2.63a1.853 1.853 0 0 1 0 2.63l-2.63 2.63C14.19 25.91-3.8 7.81.72 3.29L3.35.56a1.835 1.835 0 0 1 2.63 0z" fill="#151515"
      fill-rule="evenodd"></path>
  </symbol>
</svg>