<svg width="0" height="0" class="hidden">
  <symbol xmlns="http://www.w3.org/2000/svg" viewBox="0 0 34 50" id="location">
    <path d="M17.751 48.2l-2.934-5.181q-2.916-5.163-5.844-10.339-2.182-3.851-4.354-7.7a18.412 18.412 0 0 1-1.6-3.478 14.658 14.658 0 1 1 26.55 3.034c-1.145 1.967-2.3 3.91-3.447 5.877q-3.024 5.163-6.059 10.327c-1.384 2.363-2.779 4.726-4.163 7.1-.071.121-.143.252-.214.372a1.2 1.2 0 0 0 2.063 1.212c1.05-1.8 2.1-3.586 3.161-5.385q3.112-5.308 6.226-10.615c1.443-2.447 2.874-4.906 4.317-7.353a17.463 17.463 0 0 0 1.8-14.056A16.966 16.966 0 0 0 3 7.4a17.277 17.277 0 0 0-.966 17.859c1.014 1.883 2.1 3.718 3.149 5.577q3.006 5.325 6.023 10.651c1.42 2.519 2.851 5.037 4.27 7.556.072.132.143.264.215.384a1.2 1.2 0 0 0 2.06-1.227zm4.4-33.055a5.164 5.164 0 1 1-4.186-5.109 5.222 5.222 0 0 1 4.186 5.109 1.193 1.193 0 0 0 2.386 0 7.7 7.7 0 0 0-5.01-7.148 7.547 7.547 0 0 0-8.289 2.242 7.707 7.707 0 0 0-.728 8.8 7.535 7.535 0 0 0 14.015-3.9 1.187 1.187 0 0 0-2.373.004z"
      fill="#fff" fill-rule="evenodd"></path>
  </symbol>
  <symbol xmlns="http://www.w3.org/2000/svg" viewBox="0 0 54 38" id="mail">
    <path d="M47.383 0H6.634A6.569 6.569 0 0 0 .012 6.5v25A6.57 6.57 0 0 0 6.634 38h40.749a6.57 6.57 0 0 0 6.622-6.5v-25A6.569 6.569 0 0 0 47.383 0zm3.565 31.5a3.539 3.539 0 0 1-3.565 3.5H6.634a3.538 3.538 0 0 1-3.566-3.5v-25A3.538 3.538 0 0 1 6.634 3h40.749a3.539 3.539 0 0 1 3.565 3.5v25zM46.076 9.916a1.481 1.481 0 0 1-.351 2.093L29.433 23.5a4.132 4.132 0 0 1-4.742.01l-16.4-11.494a1.483 1.483 0 0 1-.357-2.093 1.545 1.545 0 0 1 2.132-.35l16.4 11.492a1.033 1.033 0 0 0 1.187 0l16.3-11.486a1.545 1.545 0 0 1 2.123.345z"
      fill="#fff" fill-rule="evenodd"></path>
  </symbol>
  <symbol xmlns="http://www.w3.org/2000/svg" viewBox="0 0 53 53" id="phone">
    <path d="M12.17 53.007a12.3 12.3 0 0 1-6.65-1.932c-3.6-2.264-5.46-4.862-5.53-7.592-.2-4.4 3.93-8.192 8.39-11.655a5.65 5.65 0 0 1 3.33-1.066 10.774 10.774 0 0 1 8.18 4.6c.87-.066 3-2.131 3.73-2.93l8.79-8.791c1.93-1.932 2.92-3.2 2.92-3.73a11.175 11.175 0 0 1-4.52-7.126 5.393 5.393 0 0 1 1-4.4c3.32-4.4 7.05-8.392 11.31-8.392 2.86 0 5.53 1.865 7.92 5.595 4.53 7.06 1.2 16.25-9.85 27.306l-8.38 8.392c-2.87 2.863-11.72 11.721-20.64 11.721zm-.46-19.515a2.84 2.84 0 0 0-1.74.533c-3.72 2.864-7.52 6.194-7.38 9.391.06 1.865 1.53 3.73 4.32 5.461a9.654 9.654 0 0 0 5.19 1.532c7.79 0 16.05-8.258 18.77-10.989l8.39-8.392c10.05-10.056 13.25-18.115 9.45-23.976-1.86-2.864-3.72-4.329-5.65-4.329-3.2 0-6.46 3.73-9.26 7.393a3.541 3.541 0 0 0-.46 2.4 8.665 8.665 0 0 0 3.46 5.4 2.469 2.469 0 0 1 1.06 1.865c.14 1.864-1.66 3.863-3.72 5.927l-8.59 8.658c-1.93 2-3.86 3.73-5.66 3.73a2.458 2.458 0 0 1-2.06-1.066 8.368 8.368 0 0 0-6.12-3.538zm3.12-10.189a1.336 1.336 0 0 1-1.33-1.332 8.543 8.543 0 0 1 8.52-8.525 1.332 1.332 0 0 1 0 2.664 5.864 5.864 0 0 0-5.85 5.861 1.3 1.3 0 0 1-1.34 1.329zm-4.66-.667a1.336 1.336 0 0 1-1.33-1.332A12.475 12.475 0 0 1 21.29 8.85a1.332 1.332 0 0 1 0 2.664 9.8 9.8 0 0 0-9.78 9.79 1.3 1.3 0 0 1-1.34 1.332zm-4.59-.665a1.336 1.336 0 0 1-1.33-1.332A16.365 16.365 0 0 1 20.62 4.255a1.332 1.332 0 1 1 0 2.664 13.743 13.743 0 0 0-13.71 13.72 1.336 1.336 0 0 1-1.33 1.332z"
      fill="#fff" fill-rule="evenodd"></path>
  </symbol>
</svg>