<svg width="0" height="0" class="hidden">
  <symbol xmlns="http://www.w3.org/2000/svg" viewBox="0 0 19.03 25" id="location">
    <path d="M17.05 3.71A9.485 9.485 0 1 0 1.94 15.18L9.5 25l7.55-9.82a9.437 9.437 0 0 0 0-11.47zm-7.55.56a4.945 4.945 0 1 1-4.97 4.95A4.97 4.97 0 0 1 9.5 4.27z" fill="#151515" fill-rule="evenodd"></path>
  </symbol>
  <symbol xmlns="http://www.w3.org/2000/svg" viewBox="0 0 22 14" id="mail">
    <path d="M1.61 0a1.531 1.531 0 0 0-.6.12l9.34 7.97a.911.911 0 0 0 1.28 0L20.98.11a1.629 1.629 0 0 0-.59-.11H1.61zM.02 1.38a1.953 1.953 0 0 0-.02.23v10.77A1.611 1.611 0 0 0 1.61 14h18.78A1.611 1.611 0 0 0 22 12.38V1.61a1.953 1.953 0 0 0-.02-.23l-9.3 7.94a2.6 2.6 0 0 1-3.37 0z"
      fill="#151515" fill-rule="evenodd"></path>
  </symbol>
  <symbol xmlns="http://www.w3.org/2000/svg" viewBox="0 0 22 22.03" id="phone">
    <path d="M5.98.56l2.63 2.73a1.718 1.718 0 0 1 0 2.53l-2 2.1a16.784 16.784 0 0 0 7.47 7.57l2.11-2.1a1.835 1.835 0 0 1 2.63 0l2.63 2.63a1.853 1.853 0 0 1 0 2.63l-2.63 2.63C14.19 25.91-3.8 7.81.72 3.29L3.35.56a1.835 1.835 0 0 1 2.63 0z" fill="#151515"
      fill-rule="evenodd"></path>
  </symbol>
  <symbol xmlns="http://www.w3.org/2000/svg" viewBox="0 0 56 50" id="cart">
    <path d="M1.241 0a1.25 1.25 0 0 0 0 2.5h7.7l6.555 31.1a1.553 1.553 0 0 0 1.3 1.4h31.12a1.25 1.25 0 1 0 0-2.5H17.812l-1.05-5h33.649a1.279 1.279 0 0 0 1.205-.97l4.357-18.75a1.312 1.312 0 0 0-1.206-1.53H12.288L11.18.98A1.3 1.3 0 0 0 9.954 0H1.241zm11.573 8.75h11.028l1.147 6.88H14.272zm13.537 0h13.265l-1.148 6.88H27.5zm15.774 0h11.086l-1.6 6.88H40.977zm-27.328 9.38h10.6L26.544 25H16.237zm13.129 0H38.04L36.912 25h-7.858zm12.643 0h10.464L49.419 25h-10zM23.647 38.75a5.625 5.625 0 1 0 5.6 5.63 5.631 5.631 0 0 0-5.6-5.63zm17.428 0a5.625 5.625 0 1 0 5.6 5.63 5.632 5.632 0 0 0-5.6-5.63zm-17.428 2.5a3.125 3.125 0 1 1-3.112 3.13 3.1 3.1 0 0 1 3.112-3.13zm17.428 0a3.125 3.125 0 1 1-3.112 3.13 3.1 3.1 0 0 1 3.112-3.13z"
      fill="#313131" fill-rule="evenodd"></path>
  </symbol>
  <symbol xmlns="http://www.w3.org/2000/svg" viewBox="0 0 60 62" id="lightbulb">
    <path d="M37.161 50.69H22.712a1.385 1.385 0 0 1-1.382-1.39v-1.02c0-2.2-1.394-4.44-2.868-6.81-1.96-3.14-4.179-6.71-4.179-11.42a15.533 15.533 0 0 1 31.065 0c0 4.02-1.935 7.36-3.8 10.59-1.544 2.66-3 5.18-3 7.64v1.02a1.383 1.383 0 0 1-1.387 1.39zm-13.075-2.77h11.7c.116-3.05 1.7-5.78 3.364-8.66 1.69-2.92 3.436-5.94 3.436-9.21a12.769 12.769 0 0 0-25.537 0c0 3.93 1.912 6.99 3.761 9.96 1.548 2.49 3.152 5.06 3.276 7.91zm12.049 8.56h-12.4a1.385 1.385 0 0 1 0-2.77h12.4a1.385 1.385 0 0 1 0 2.77zM33.705 62h-7.536a1.38 1.38 0 1 1 0-2.76h7.536a1.38 1.38 0 1 1 0 2.76zm-3.89-52.31a1.385 1.385 0 0 1-1.382-1.39V1.38a1.382 1.382 0 1 1 2.764 0V8.3a1.385 1.385 0 0 1-1.382 1.39zm15.678 6.07a1.374 1.374 0 0 1-.978-.4 1.388 1.388 0 0 1 0-1.96l5.1-5.1a1.381 1.381 0 1 1 1.955 1.95l-5.1 5.11a1.412 1.412 0 0 1-.977.4zM9.277 52.21a1.4 1.4 0 0 1-.955-.38 1.377 1.377 0 0 1-.045-1.95l5.1-5.35a1.383 1.383 0 1 1 2 1.91l-5.1 5.34a1.359 1.359 0 0 1-1 .43zm49.34-20.78h-6.684a1.38 1.38 0 1 1 0-2.76h6.684a1.38 1.38 0 1 1 0 2.76zm-50.676 0H1.378a1.38 1.38 0 1 1 0-2.76h6.563a1.38 1.38 0 1 1 0 2.76zm6.319-15.55a1.374 1.374 0 0 1-.978-.4l-4.861-4.86a1.384 1.384 0 1 1 1.954-1.96l4.861 4.86a1.388 1.388 0 0 1 0 1.96 1.369 1.369 0 0 1-.976.4zm36.215 35.97a1.384 1.384 0 0 1-.977-.41l-4.861-4.86a1.38 1.38 0 1 1 1.954-1.95l4.861 4.86a1.385 1.385 0 0 1-.977 2.36zM24.118 36.97a1.371 1.371 0 0 1-.977-.4 9.448 9.448 0 1 1 13.363-13.36 1.38 1.38 0 0 1-1.954 1.95 6.684 6.684 0 0 0-9.455 9.45 1.388 1.388 0 0 1 0 1.96 1.373 1.373 0 0 1-.977.4z"
      fill="#313131" fill-rule="evenodd"></path>
  </symbol>
  <symbol xmlns="http://www.w3.org/2000/svg" viewBox="0 0 55 67" id="marketplace">
      <path fill-rule="evenodd"  fill="rgb(49, 49, 49)"
  d="M52.006,33.953 L52.006,51.276 C52.006,51.844 51.543,52.341 50.938,52.341 L38.968,52.341 L38.968,56.919 L38.968,61.461 C38.968,64.513 36.475,66.997 33.411,66.997 L5.554,66.997 C2.490,66.997 -0.003,64.513 -0.003,61.461 L-0.003,56.884 L-0.003,10.112 L-0.003,5.534 C-0.003,2.482 2.490,-0.002 5.554,-0.002 L33.411,-0.002 C36.475,-0.002 38.968,2.482 38.968,5.534 L38.968,10.112 L38.968,14.689 L49.370,14.689 C49.798,14.689 50.154,14.938 50.332,15.328 L54.892,25.336 C54.963,25.477 54.999,25.620 54.999,25.761 L54.999,29.913 C54.999,31.808 53.732,33.405 52.006,33.953 ZM38.968,50.212 L49.869,50.212 L49.869,34.078 C48.940,33.887 48.122,33.401 47.518,32.717 C46.734,33.604 45.594,34.172 44.312,34.172 C43.029,34.172 41.889,33.604 41.106,32.717 C40.322,33.604 39.182,34.172 37.900,34.172 C36.617,34.172 35.477,33.604 34.694,32.717 C33.910,33.604 32.770,34.172 31.487,34.172 C30.205,34.172 29.065,33.604 28.317,32.717 C27.758,33.350 27.012,33.809 26.168,34.027 L25.966,50.212 L27.142,50.212 L27.142,38.820 C27.142,38.217 27.605,37.756 28.210,37.756 L34.159,37.756 C34.765,37.756 35.228,38.217 35.228,38.820 L35.228,50.212 L37.900,50.212 L38.968,50.212 ZM29.279,39.885 L29.279,50.212 L33.091,50.212 L33.091,39.885 L29.279,39.885 ZM2.134,61.461 C2.134,63.342 3.666,64.868 5.554,64.868 L33.411,64.868 C35.299,64.868 36.831,63.342 36.831,61.461 L36.831,57.948 L2.134,57.948 L2.134,61.461 ZM2.134,55.819 L36.831,55.819 L36.831,52.341 L34.159,52.341 L28.210,52.341 L24.862,52.341 L23.793,52.341 L23.805,51.337 C23.803,51.316 23.793,51.298 23.793,51.276 L23.793,33.957 C22.054,33.423 20.801,31.821 20.801,29.913 L20.801,29.878 L20.801,25.726 L20.801,25.548 L20.901,25.327 C20.905,25.318 20.903,25.309 20.908,25.300 L25.432,15.293 C25.442,15.270 25.460,15.252 25.472,15.231 L25.717,14.689 L26.164,14.689 C26.240,14.671 26.316,14.654 26.393,14.654 L36.795,14.654 L36.795,11.141 L2.134,11.141 L2.134,55.819 ZM36.831,5.534 C36.831,3.653 35.299,2.127 33.411,2.127 L5.554,2.127 C3.666,2.127 2.134,3.653 2.134,5.534 L2.134,9.047 L36.831,9.047 L36.831,5.534 ZM52.861,25.974 L48.693,16.819 L38.968,16.819 L37.900,16.819 L27.106,16.819 L22.974,25.974 L22.974,29.913 C22.974,30.947 23.723,31.812 24.707,32.001 C24.760,31.994 24.806,31.972 24.862,31.972 C24.979,31.972 25.084,32.002 25.188,32.035 C26.328,31.993 27.248,31.058 27.248,29.913 C27.248,29.310 27.711,28.849 28.317,28.849 C28.923,28.849 29.386,29.310 29.386,29.913 C29.386,31.084 30.348,32.042 31.487,32.042 C32.663,32.042 33.625,31.084 33.625,29.913 C33.625,29.310 34.088,28.849 34.694,28.849 C35.299,28.849 35.762,29.310 35.762,29.913 C35.762,31.084 36.724,32.042 37.900,32.042 C39.075,32.042 40.037,31.084 40.037,29.913 C40.037,29.310 40.500,28.849 41.106,28.849 C41.711,28.849 42.174,29.310 42.174,29.913 C42.174,31.084 43.136,32.042 44.312,32.042 C45.487,32.042 46.449,31.084 46.449,29.913 C46.449,29.310 46.912,28.849 47.518,28.849 C48.123,28.849 48.587,29.310 48.587,29.913 C48.587,31.050 49.495,31.978 50.623,32.032 C50.724,32.002 50.825,31.972 50.938,31.972 C50.998,31.972 51.048,31.995 51.105,32.004 C52.100,31.823 52.861,30.955 52.861,29.913 L52.861,25.974 ZM49.620,26.932 L26.180,26.932 C25.574,26.932 25.111,26.471 25.111,25.868 C25.111,25.264 25.574,24.803 26.180,24.803 L49.620,24.803 C50.225,24.803 50.688,25.264 50.688,25.868 C50.688,26.471 50.225,26.932 49.620,26.932 ZM15.920,4.434 L23.009,4.434 C23.615,4.434 24.078,4.895 24.078,5.498 C24.078,6.102 23.615,6.563 23.045,6.563 L15.920,6.563 C15.315,6.563 14.852,6.102 14.852,5.498 C14.852,4.895 15.315,4.434 15.920,4.434 ZM19.483,63.271 C18.378,63.271 17.452,62.384 17.452,61.284 C17.488,60.183 18.378,59.296 19.483,59.296 C20.587,59.296 21.477,60.183 21.477,61.284 C21.477,62.384 20.587,63.271 19.483,63.271 ZM37.258,37.756 L47.589,37.756 C48.195,37.756 48.658,38.217 48.658,38.820 L48.658,46.734 C48.658,47.337 48.195,47.799 47.589,47.799 L37.258,47.799 C36.653,47.799 36.190,47.337 36.190,46.734 L36.190,38.820 C36.190,38.217 36.653,37.756 37.258,37.756 ZM38.327,45.669 L46.520,45.669 L46.520,39.885 L38.327,39.885 L38.327,45.669 Z"/>
  </symbol>
  <symbol xmlns="http://www.w3.org/2000/svg" viewBox="0 0 73 60" id="retail">
    <path d="M71.78 36h-1l2.2-13a1.2 1.2 0 0 0-.27-.98 1.215 1.215 0 0 0-.93-.42h-3.27l1.95-4.31-2.22-.98-2.39 5.29h-7.61l-2.38-5.29-2.22.98 1.94 4.31h-3.27a1.212 1.212 0 0 0-1.2 1.4l2.2 13H51.1v-3.6a1.214 1.214 0 0 0-1.22-1.2h-2.43V20.4a6.015 6.015 0 0 0-5.11-5.9 8.346 8.346 0 0 0 2.67-6.1 8.516 8.516 0 0 0-17.03 0 8.317 8.317 0 0 0 2.68 6.1 6.015 6.015 0 0 0-5.11 5.9v6h-7.3a1.214 1.214 0 0 0-1.22 1.2v3.6h-4.86v-8.4h8.51a1.214 1.214 0 0 0 1.22-1.2V7.2A1.214 1.214 0 0 0 20.68 6H1.22A1.208 1.208 0 0 0 0 7.2v14.4a1.208 1.208 0 0 0 1.22 1.2h8.51v8.4H1.22A1.208 1.208 0 0 0 0 32.4V54a1.208 1.208 0 0 0 1.22 1.2h1.21v3.6A1.214 1.214 0 0 0 3.65 60h65.7a1.206 1.206 0 0 0 1.21-1.2v-3.6h1.22A1.214 1.214 0 0 0 73 54V37.2a1.214 1.214 0 0 0-1.22-1.2zM2.43 8.4h17.04v12H2.43v-12zM53.75 24h2.91l1.84 4.09 2.23-.98L59.32 24h5.45l-1.4 3.11 2.22.98L67.43 24h2.91l-2.02 12H55.78zM30.41 8.4a6.086 6.086 0 1 1 6.09 6 6.05 6.05 0 0 1-6.09-6zM19.47 28.8h7.29a1.208 1.208 0 0 0 1.22-1.2v-7.2a3.634 3.634 0 0 1 3.65-3.6h9.73a3.628 3.628 0 0 1 3.65 3.6v10.8h-2.43v-9.6a1.215 1.215 0 0 0-2.43 0v9.6h-7.3v-9.6a1.22 1.22 0 0 0-2.44 0v9.6H19.47v-2.4zm48.66 28.8H4.87v-2.4h63.26v2.4zm2.43-4.8H2.43V33.6h46.23v3.6a1.214 1.214 0 0 0 1.22 1.2h20.68v14.4z"
      fill="#313131" fill-rule="evenodd"></path>
  </symbol>
  <symbol xmlns="http://www.w3.org/2000/svg" viewBox="0 0 80 77" id="beauty">
    <path fill-rule="evenodd"  fill="rgb(49, 49, 49)"
    d="M80.000,25.717 C80.000,26.803 79.272,27.737 78.165,28.247 C78.583,29.389 78.436,30.562 77.672,31.326 C77.204,31.795 76.550,32.053 75.830,32.053 C75.830,32.053 75.830,32.053 75.830,32.053 C75.419,32.053 74.998,31.972 74.586,31.818 C74.074,32.920 73.142,33.644 72.063,33.644 C70.981,33.644 70.047,32.916 69.537,31.811 C69.128,31.963 68.709,32.042 68.301,32.042 C67.580,32.042 66.925,31.783 66.457,31.314 C65.691,30.548 65.546,29.372 65.967,28.229 C64.865,27.717 64.140,26.784 64.140,25.704 C64.140,24.620 64.868,23.686 65.975,23.175 C65.556,22.033 65.703,20.859 66.469,20.095 C66.936,19.628 67.591,19.370 68.312,19.370 C68.722,19.370 69.143,19.450 69.554,19.603 C70.065,18.502 70.998,17.777 72.077,17.777 C73.161,17.777 74.095,18.505 74.604,19.609 C75.014,19.459 75.431,19.379 75.840,19.379 C76.560,19.379 77.215,19.637 77.684,20.106 C78.450,20.873 78.595,22.049 78.173,23.192 C79.275,23.704 80.000,24.637 80.000,25.717 ZM76.230,25.203 C75.744,25.198 75.307,24.902 75.122,24.452 C74.936,24.002 75.037,23.485 75.378,23.138 C75.968,22.537 76.026,21.936 75.964,21.819 C75.962,21.822 75.923,21.807 75.840,21.807 C75.576,21.807 75.107,21.964 74.653,22.409 C74.305,22.749 73.788,22.849 73.338,22.662 C72.889,22.475 72.595,22.038 72.591,21.551 C72.584,20.701 72.193,20.236 72.070,20.205 C71.962,20.236 71.572,20.701 71.562,21.549 C71.557,22.035 71.262,22.472 70.812,22.658 C70.362,22.843 69.845,22.742 69.499,22.401 C69.045,21.955 68.576,21.797 68.311,21.797 C68.215,21.797 68.179,21.817 68.178,21.817 C68.124,21.917 68.178,22.522 68.769,23.126 C69.110,23.474 69.209,23.991 69.023,24.440 C68.837,24.890 68.400,25.184 67.914,25.189 C67.063,25.197 66.598,25.588 66.566,25.711 C66.598,25.818 67.063,26.209 67.910,26.218 C68.396,26.223 68.833,26.519 69.018,26.969 C69.204,27.418 69.103,27.936 68.762,28.283 C68.171,28.885 68.115,29.486 68.178,29.601 C68.181,29.598 68.218,29.614 68.301,29.614 C68.565,29.614 69.033,29.456 69.487,29.012 C69.718,28.786 70.024,28.666 70.336,28.666 C70.492,28.666 70.650,28.697 70.801,28.759 C71.250,28.945 71.544,29.382 71.549,29.868 C71.557,30.703 71.933,31.167 72.063,31.214 C72.193,31.167 72.568,30.704 72.577,29.872 C72.583,29.386 72.878,28.949 73.328,28.764 C73.777,28.577 74.294,28.679 74.641,29.020 C75.096,29.466 75.566,29.625 75.830,29.625 C75.925,29.625 75.962,29.605 75.962,29.605 C76.016,29.506 75.964,28.901 75.370,28.295 C75.030,27.947 74.930,27.429 75.117,26.980 C75.304,26.530 75.741,26.236 76.227,26.232 C77.077,26.225 77.542,25.834 77.574,25.710 C77.542,25.602 77.078,25.212 76.230,25.203 ZM52.699,65.698 L52.699,73.531 C52.699,75.444 51.143,77.000 49.232,77.000 L36.404,77.000 C34.492,77.000 32.937,75.444 32.937,73.531 L32.937,65.698 C30.734,64.546 29.138,62.377 28.853,59.746 L22.542,1.344 C22.505,1.002 22.616,0.659 22.846,0.403 C23.076,0.146 23.404,-0.000 23.749,-0.000 L61.886,-0.000 C62.231,-0.000 62.559,0.146 62.789,0.403 C63.020,0.659 63.130,1.002 63.093,1.344 L56.782,59.746 C56.497,62.377 54.901,64.546 52.699,65.698 ZM35.363,73.531 C35.363,74.105 35.830,74.572 36.404,74.572 L38.137,74.572 L38.137,70.583 C38.137,69.913 38.680,69.369 39.351,69.369 C40.021,69.369 40.564,69.913 40.564,70.583 L40.564,74.572 L45.071,74.572 L45.071,70.583 C45.071,69.913 45.614,69.369 46.285,69.369 C46.955,69.369 47.498,69.913 47.498,70.583 L47.498,74.572 L49.232,74.572 C49.805,74.572 50.272,74.105 50.272,73.531 L50.272,66.594 L49.156,66.594 L36.479,66.594 L35.363,66.594 L35.363,73.531 ZM60.534,2.428 L25.100,2.428 L25.963,10.405 L31.203,10.405 L31.203,6.416 C31.203,5.746 31.746,5.203 32.416,5.203 C33.087,5.203 33.630,5.746 33.630,6.416 L33.630,10.405 L36.404,10.405 L36.404,6.416 C36.404,5.746 36.947,5.203 37.617,5.203 C38.287,5.203 38.831,5.746 38.831,6.416 L38.831,10.405 L41.604,10.405 L41.604,6.416 C41.604,5.746 42.147,5.203 42.818,5.203 C43.488,5.203 44.031,5.746 44.031,6.416 L44.031,10.405 L46.805,10.405 L46.805,6.416 C46.805,5.746 47.348,5.203 48.018,5.203 C48.688,5.203 49.232,5.746 49.232,6.416 L49.232,10.405 L52.005,10.405 L52.005,6.416 C52.005,5.746 52.549,5.203 53.219,5.203 C53.889,5.203 54.432,5.746 54.432,6.416 L54.432,10.405 L59.672,10.405 L60.534,2.428 ZM26.225,12.833 L31.266,59.485 C31.555,62.154 33.796,64.166 36.479,64.166 L49.156,64.166 C51.839,64.166 54.080,62.154 54.369,59.485 L54.725,56.189 L37.617,56.189 C36.947,56.189 36.404,55.646 36.404,54.975 C36.404,54.305 36.947,53.761 37.617,53.761 L54.952,53.761 C54.964,53.761 54.974,53.768 54.987,53.768 L59.410,12.833 L26.225,12.833 ZM42.818,45.783 C38.249,45.783 34.670,39.918 34.670,32.430 C34.670,24.942 38.249,19.076 42.818,19.076 C47.386,19.076 50.965,24.942 50.965,32.430 C50.965,39.918 47.386,45.783 42.818,45.783 ZM42.818,21.504 C39.717,21.504 37.097,26.508 37.097,32.430 C37.097,38.352 39.717,43.356 42.818,43.356 C45.919,43.356 48.538,38.352 48.538,32.430 C48.538,26.508 45.919,21.504 42.818,21.504 ZM15.081,73.531 C11.545,73.531 8.667,70.653 8.667,67.115 C8.667,63.576 11.545,60.698 15.081,60.698 C18.618,60.698 21.495,63.576 21.495,67.115 C21.495,70.653 18.618,73.531 15.081,73.531 ZM15.081,63.126 C12.883,63.126 11.094,64.915 11.094,67.115 C11.094,69.314 12.883,71.103 15.081,71.103 C17.280,71.103 19.068,69.314 19.068,67.115 C19.068,64.915 17.280,63.126 15.081,63.126 ZM16.928,47.376 C17.543,48.784 17.423,50.262 16.490,51.196 C15.952,51.734 15.227,52.018 14.394,52.018 C14.394,52.018 14.394,52.018 14.394,52.018 C13.822,52.018 13.232,51.883 12.662,51.631 C12.101,53.060 10.973,54.019 9.655,54.019 C8.332,54.019 7.203,53.056 6.643,51.622 C6.076,51.871 5.490,52.004 4.921,52.004 C4.098,52.004 3.353,51.712 2.823,51.180 C1.888,50.244 1.770,48.764 2.390,47.353 C0.960,46.793 -0.000,45.664 -0.000,44.344 C-0.000,43.020 0.963,41.889 2.399,41.330 C1.783,39.921 1.903,38.442 2.838,37.509 C3.367,36.980 4.112,36.688 4.935,36.688 C5.506,36.688 6.095,36.822 6.664,37.074 C7.225,35.644 8.353,34.685 9.672,34.685 C10.996,34.685 12.126,35.647 12.685,37.082 C13.252,36.832 13.838,36.700 14.406,36.700 C15.228,36.700 15.974,36.992 16.504,37.523 C17.440,38.459 17.557,39.940 16.937,41.351 C18.367,41.912 19.327,43.041 19.327,44.361 C19.327,45.686 18.363,46.817 16.928,47.376 ZM14.900,43.400 C14.414,43.394 13.978,43.099 13.792,42.649 C13.606,42.199 13.707,41.682 14.048,41.335 C14.920,40.448 15.023,39.474 14.788,39.239 C14.696,39.147 14.529,39.127 14.406,39.127 C13.996,39.127 13.331,39.350 12.694,39.974 C12.346,40.315 11.829,40.415 11.380,40.228 C10.930,40.041 10.636,39.603 10.632,39.116 C10.622,37.874 10.004,37.112 9.672,37.112 C9.341,37.112 8.725,37.872 8.712,39.113 C8.706,39.599 8.411,40.036 7.961,40.221 C7.512,40.407 6.994,40.307 6.647,39.965 C6.010,39.339 5.345,39.115 4.935,39.115 C4.811,39.115 4.645,39.135 4.553,39.227 C4.318,39.462 4.419,40.433 5.287,41.320 C5.627,41.668 5.727,42.185 5.541,42.634 C5.354,43.084 4.917,43.378 4.431,43.383 C3.187,43.395 2.426,44.012 2.426,44.343 C2.426,44.674 3.185,45.290 4.426,45.304 C4.912,45.309 5.348,45.604 5.534,46.054 C5.720,46.504 5.619,47.021 5.278,47.369 C4.407,48.255 4.305,49.229 4.540,49.464 C4.637,49.562 4.820,49.576 4.921,49.576 C5.330,49.576 5.995,49.354 6.632,48.730 C6.864,48.503 7.170,48.383 7.481,48.383 C7.638,48.383 7.796,48.414 7.946,48.476 C8.395,48.663 8.690,49.099 8.695,49.586 C8.706,50.830 9.323,51.592 9.655,51.592 C9.986,51.592 10.601,50.832 10.615,49.591 C10.620,49.104 10.916,48.668 11.365,48.483 C11.815,48.296 12.332,48.397 12.679,48.739 C13.317,49.366 13.983,49.590 14.394,49.590 C14.517,49.590 14.682,49.570 14.774,49.479 C15.008,49.244 14.907,48.271 14.039,47.384 C13.699,47.036 13.599,46.518 13.786,46.069 C13.973,45.619 14.410,45.325 14.896,45.321 C16.139,45.310 16.900,44.693 16.900,44.360 C16.900,44.029 16.141,43.414 14.900,43.400 ZM12.481,24.973 C10.378,24.973 8.667,23.261 8.667,21.157 C8.667,19.054 10.378,17.342 12.481,17.342 C14.584,17.342 16.295,19.054 16.295,21.157 C16.295,23.261 14.584,24.973 12.481,24.973 ZM12.481,19.770 C11.716,19.770 11.094,20.393 11.094,21.157 C11.094,21.922 11.716,22.545 12.481,22.545 C13.246,22.545 13.868,21.922 13.868,21.157 C13.868,20.393 13.246,19.770 12.481,19.770 ZM68.820,52.027 C71.401,52.027 73.501,54.127 73.501,56.709 C73.501,59.291 71.401,61.392 68.820,61.392 C66.240,61.392 64.140,59.291 64.140,56.709 C64.140,54.127 66.240,52.027 68.820,52.027 ZM68.820,58.964 C70.063,58.964 71.074,57.952 71.074,56.709 C71.074,55.466 70.063,54.455 68.820,54.455 C67.578,54.455 66.567,55.466 66.567,56.709 C66.567,57.952 67.578,58.964 68.820,58.964 Z"/>
  </symbol>
  <symbol xmlns="http://www.w3.org/2000/svg" viewBox="0 0 53 61.97" id="intimacy">
    <path fill-rule="evenodd"  fill="rgb(49, 49, 49)"
 d="M51.473,10.181 C50.645,10.169 49.983,9.477 49.994,8.636 L49.994,5.219 L42.961,12.365 C45.486,15.486 46.814,19.551 46.440,23.774 C45.825,30.727 40.763,36.452 34.024,37.813 C33.524,37.922 33.005,37.764 32.645,37.396 C32.063,36.798 32.067,35.833 32.656,35.240 C32.869,35.026 33.140,34.881 33.435,34.825 C38.883,33.725 42.955,29.124 43.452,23.504 C43.950,17.884 40.754,12.617 35.587,10.547 C30.420,8.477 24.544,10.107 21.132,14.559 C20.637,15.234 19.698,15.374 19.033,14.872 C18.368,14.369 18.231,13.415 18.725,12.739 C18.738,12.722 18.751,12.705 18.765,12.688 C22.987,7.179 30.293,5.152 36.686,7.713 C38.223,8.329 39.616,9.180 40.843,10.207 L47.874,3.064 L44.511,3.064 C44.497,3.065 44.483,3.065 44.469,3.064 C43.640,3.053 42.978,2.360 42.990,1.519 C43.002,0.678 43.683,0.005 44.511,0.017 L51.494,0.017 C52.323,0.017 52.994,0.699 52.994,1.541 L52.994,8.636 C52.994,8.650 52.994,8.664 52.994,8.679 C52.982,9.520 52.301,10.193 51.473,10.181 ZM30.997,32.015 C30.997,40.178 24.840,46.912 16.999,47.682 L16.999,55.886 L19.987,55.886 C20.001,55.886 20.016,55.886 20.030,55.886 C20.858,55.898 21.520,56.590 21.508,57.432 C21.497,58.273 20.816,58.946 19.987,58.934 L16.999,58.934 L16.999,60.442 C17.000,60.456 17.000,60.470 16.999,60.485 C16.988,61.326 16.307,61.998 15.478,61.987 C14.650,61.975 13.988,61.283 14.000,60.442 L14.000,58.934 L11.016,58.934 C11.002,58.934 10.988,58.934 10.974,58.934 C10.145,58.922 9.483,58.230 9.495,57.389 C9.507,56.547 10.188,55.874 11.016,55.886 L14.000,55.886 L14.000,47.682 C6.159,46.912 0.002,40.178 0.002,32.015 C0.002,23.337 6.958,16.270 15.500,16.270 C24.041,16.270 30.997,23.337 30.997,32.015 ZM15.500,19.317 C8.579,19.317 3.001,24.984 3.001,32.015 C3.001,39.046 8.579,44.712 15.500,44.712 C22.420,44.712 27.998,39.046 27.998,32.015 C27.998,24.984 22.420,19.317 15.500,19.317 ZM25.574,35.531 C25.191,36.277 24.285,36.566 23.551,36.177 C23.528,36.165 23.506,36.153 23.485,36.140 C22.294,35.470 21.211,34.651 20.253,33.716 L20.253,33.717 C17.383,30.912 15.642,27.051 15.503,22.904 C15.474,22.062 16.122,21.356 16.950,21.326 C17.778,21.297 18.473,21.954 18.503,22.796 C18.653,27.260 21.092,31.310 24.937,33.475 C25.672,33.864 25.957,34.784 25.574,35.531 Z"/>
  </symbol>
  <symbol xmlns="http://www.w3.org/2000/svg" viewBox="0 0 74.969 75" id="pain">
    <path d="M74.72 53.14a57.024 57.024 0 0 0-2.455-9.72 24.493 24.493 0 0 1-.55-3.01c-.164-1.07-.328-2.17-.522-3.15a73.18 73.18 0 0 1-1.171-8.56c0-.16.041-.59.088-1.02.252-2.29.767-7.03-.75-11.14a16.831 16.831 0 0 0-8.2-9.42c-1.054-.53-3.591-1.58-6.274-2.69s-6.256-2.59-6.918-2.99l-1.1-1.11a1.171 1.171 0 0 0-1.658 1.65l1.172 1.18c.416.42 1.634.97 7.657 3.46 2.524 1.05 5.143 2.13 6.121 2.62a14.485 14.485 0 0 1 7.03 8.15c1.324 3.51.85 7.92.621 10.04-.064.58-.105.98-.105 1.27a73.772 73.772 0 0 0 1.171 9.01c.188.93.352 2.01.5 3.05a15.379 15.379 0 0 0 .773 3.69 60.943 60.943 0 0 1 2.232 9.02c.586 3.96 0 20.14 0 20.3a1.178 1.178 0 0 0 1.125 1.22h.047a1.172 1.172 0 0 0 1.172-1.13c.029-.68.586-16.56-.006-20.72zm-9.373 7.03c-.141-.97-.311-2.11-.492-3.3a99.255 99.255 0 0 1-1.254-10.01c0-1.44-1.242-5.55-2.993-11.21-.774-2.49-1.647-5.28-1.693-5.78a1.172 1.172 0 0 0-2.344 0c0 .58.4 1.96 1.529 5.6-1.857 4.36-2.7 13.15-2.7 15.49 0 .68.123 1.72.263 2.93a35.193 35.193 0 0 1 .323 3.52c0 4.97.076 9.8.644 11.5a46.864 46.864 0 0 1 1.125 5.1 1.18 1.18 0 0 0 1.171.98h.194a1.178 1.178 0 0 0 .966-1.35 47.557 47.557 0 0 0-1.218-5.45c-.522-1.58-.522-8.25-.522-10.76a36.524 36.524 0 0 0-.345-3.82c-.129-1.04-.252-2.11-.252-2.65a62.34 62.34 0 0 1 1.558-11.59 52.39 52.39 0 0 1 1.957 7.49c0 1.88.679 6.38 1.277 10.36.181 1.17.351 2.32.492 3.28.586 4.1 2.853 13.21 2.929 13.6a1.177 1.177 0 0 0 1.137.89 1.4 1.4 0 0 0 .287-.04 1.17 1.17 0 0 0 .856-1.42c-.013-.09-2.327-9.37-2.895-13.36zM29.8 1.98A1.176 1.176 0 0 0 28.125.33l-1.113 1.11c-.645.4-4.283 1.91-6.954 3.01s-5.22 2.16-6.274 2.69a16.822 16.822 0 0 0-8.2 9.43c-1.476 4.05-.972 8.82-.72 11.11.047.44.088.86.088 1.02a73.182 73.182 0 0 1-1.172 8.56c-.193.98-.357 2.08-.521 3.15a25.3 25.3 0 0 1-.545 3 59.865 59.865 0 0 0-2.437 9.73c-.586 4.16-.035 20.04 0 20.72a1.172 1.172 0 0 0 1.171 1.13h.047a1.178 1.178 0 0 0 1.125-1.22c0-.16-.586-16.34 0-20.3a61.308 61.308 0 0 1 2.232-9.02 15.276 15.276 0 0 0 .773-3.69c.153-1.04.317-2.12.5-3.05a73.774 73.774 0 0 0 1.172-9.01c0-.29-.041-.68-.106-1.27-.228-2.12-.7-6.51.621-10.04a14.492 14.492 0 0 1 7.03-8.15c.979-.47 3.6-1.57 6.128-2.62 6.022-2.49 7.241-3.04 7.657-3.46zM18.424 29.87a1.172 1.172 0 0 0-2.344 0c-.052.52-.925 3.34-1.7 5.82-1.758 5.66-2.994 9.78-2.994 11.22 0 1.7-.691 6.3-1.254 10.01-.181 1.17-.351 2.34-.492 3.3-.586 3.99-2.882 13.27-2.929 13.35a1.174 1.174 0 0 0 .908 1.38 1.388 1.388 0 0 0 .287.04 1.178 1.178 0 0 0 1.137-.89c.093-.39 2.343-9.49 2.929-13.6a493 493 0 0 1 .492-3.28c.586-3.98 1.277-8.48 1.277-10.36a52.39 52.39 0 0 1 1.957-7.49 62.332 62.332 0 0 1 1.552 11.59c0 .54-.123 1.61-.252 2.65a36.4 36.4 0 0 0-.334 3.8c0 2.51 0 9.19-.521 10.76a47.56 47.56 0 0 0-1.219 5.45 1.177 1.177 0 0 0 .965 1.35h.2a1.172 1.172 0 0 0 1.172-.98 46.63 46.63 0 0 1 1.125-5.1c.585-1.7.644-6.53.644-11.5.045-1.17.149-2.34.31-3.5.141-1.2.264-2.24.264-2.93 0-2.34-.814-11.13-2.7-15.49 1.12-3.64 1.519-5.02 1.519-5.6zm27.785-17.93a1.175 1.175 0 0 0 0 1.66 12.311 12.311 0 0 1 0 17.4 1.175 1.175 0 0 0 0 1.66 1.163 1.163 0 0 0 1.653-.01 14.655 14.655 0 0 0 0-20.71 1.186 1.186 0 0 0-1.657 0zM28.816 13.6a1.172 1.172 0 0 0-1.652-1.66 14.648 14.648 0 0 0 0 20.71 1.173 1.173 0 0 0 1.658-1.66 12.3 12.3 0 0 1-.007-17.39zm17.3 12.99a9.635 9.635 0 0 0-4.317-12.89 1.177 1.177 0 0 0-1.043 2.11 7.282 7.282 0 0 1 3.263 9.75 1.167 1.167 0 0 0 .5 1.55 1.086 1.086 0 0 0 .527.13 1.157 1.157 0 0 0 1.074-.65zm-11.857 2.22a7.287 7.287 0 0 1-3.257-9.76 1.174 1.174 0 0 0-2.1-1.05 9.616 9.616 0 0 0 4.311 12.89 1.069 1.069 0 0 0 .522.13 1.175 1.175 0 0 0 1.17-1.18 1.156 1.156 0 0 0-.649-1.04v.01zm5.343-10.71a4.692 4.692 0 0 0-6.286 2.11 4.681 4.681 0 0 0 2.1 6.28 4.568 4.568 0 0 0 2.08.5 4.69 4.69 0 0 0 4.452-6.18 4.634 4.634 0 0 0-2.342-2.71zm0 5.24a2.346 2.346 0 0 1-4.2-2.09 2.335 2.335 0 0 1 4.428 1.05 2.325 2.325 0 0 1-.245 1.04h.012z"
      fill="#313131" fill-rule="evenodd"></path>
  </symbol>
  <symbol xmlns="http://www.w3.org/2000/svg" viewBox="0 0 53.97 66.97" id="pet">
    <path fill-rule="evenodd"  fill="rgb(49, 49, 49)"
    d="M53.882,27.710 C53.584,28.358 52.810,28.646 52.151,28.352 C50.852,27.774 49.565,27.477 48.327,27.369 C48.149,32.821 45.760,37.162 41.599,40.025 C45.618,43.893 47.910,49.155 47.910,54.738 L47.910,65.695 C47.910,66.407 47.325,66.983 46.602,66.983 C45.878,66.983 45.293,66.407 45.293,65.695 L45.293,54.738 C45.293,49.622 43.090,44.817 39.257,41.396 C35.930,43.025 31.793,43.910 26.982,43.910 C22.168,43.910 18.029,43.024 14.702,41.394 C10.868,44.815 8.665,49.620 8.665,54.738 L8.665,65.695 C8.665,66.407 8.080,66.983 7.357,66.983 C6.635,66.983 6.049,66.407 6.049,65.695 L6.049,54.738 C6.049,49.153 8.341,43.890 12.360,40.023 C8.203,37.162 5.816,32.826 5.635,27.380 C4.414,27.492 3.148,27.784 1.871,28.352 C1.211,28.646 0.438,28.358 0.140,27.710 C-0.157,27.062 0.135,26.299 0.793,26.006 C2.440,25.273 4.057,24.904 5.600,24.778 L5.600,14.454 C5.600,6.665 7.366,0.742 9.047,0.144 L9.042,0.125 C14.077,-0.968 19.559,4.969 21.393,7.179 C23.313,6.653 27.933,5.716 32.560,7.225 C34.218,5.069 39.024,-0.405 44.758,0.100 C45.190,0.138 45.573,0.384 45.784,0.757 C45.889,0.943 48.362,5.424 48.362,14.454 L48.362,24.775 C49.923,24.895 51.560,25.263 53.229,26.006 C53.887,26.299 54.179,27.062 53.882,27.710 ZM45.746,14.454 C45.746,8.021 44.403,4.098 43.792,2.645 C38.661,2.820 34.180,9.412 34.133,9.482 C33.786,9.997 33.122,10.195 32.544,9.963 C27.248,7.824 21.427,9.860 21.369,9.881 C20.829,10.074 20.223,9.897 19.876,9.445 C18.310,7.401 13.662,2.388 10.158,2.570 C9.582,3.764 8.216,7.350 8.216,14.454 L8.216,24.795 C13.427,25.263 17.281,28.167 17.509,28.343 C18.078,28.781 18.178,29.591 17.732,30.151 C17.474,30.476 17.090,30.645 16.702,30.645 C16.420,30.645 16.137,30.556 15.898,30.372 C15.851,30.336 12.598,27.895 8.256,27.406 C8.459,32.462 10.867,36.331 15.093,38.691 C15.097,38.693 15.101,38.695 15.105,38.697 C18.172,40.406 22.172,41.335 26.982,41.335 C31.792,41.335 35.792,40.405 38.858,38.697 C38.860,38.696 38.862,38.694 38.864,38.693 C43.093,36.335 45.502,32.464 45.706,27.407 C41.387,27.908 38.173,30.335 38.126,30.370 C37.887,30.556 37.603,30.645 37.321,30.645 C36.932,30.645 36.548,30.476 36.290,30.151 C35.844,29.591 35.944,28.781 36.514,28.343 C36.740,28.167 40.564,25.282 45.746,24.797 L45.746,14.454 ZM32.596,25.256 C31.240,25.256 30.141,24.174 30.141,22.839 C30.141,21.504 31.240,20.422 32.596,20.422 C33.952,20.422 35.052,21.504 35.052,22.839 C35.052,24.174 33.952,25.256 32.596,25.256 ZM25.086,29.169 C25.086,28.766 25.419,28.439 25.828,28.439 L28.133,28.439 C28.544,28.439 28.876,28.766 28.876,29.169 L26.980,30.486 L25.086,29.169 ZM21.363,25.256 C20.007,25.256 18.908,24.174 18.908,22.839 C18.908,21.504 20.007,20.422 21.363,20.422 C22.719,20.422 23.819,21.504 23.819,22.839 C23.819,24.174 22.719,25.256 21.363,25.256 Z"/>
  </symbol>
</svg>
