<svg width="0" height="0" class="hidden"><symbol xmlns="http://www.w3.org/2000/svg" viewBox="0 0 19.03 25" id="location"><path d="M17.05 3.71A9.485 9.485 0 101.94 15.18L9.5 25l7.55-9.82a9.437 9.437 0 000-11.47zm-7.55.56a4.945 4.945 0 11-4.97 4.95A4.97 4.97 0 019.5 4.27z" fill="#151515" fill-rule="evenodd"/></symbol><symbol xmlns="http://www.w3.org/2000/svg" viewBox="0 0 22 14" id="mail"><path d="M1.61 0a1.531 1.531 0 00-.6.12l9.34 7.97a.911.911 0 001.28 0L20.98.11a1.629 1.629 0 00-.59-.11H1.61zM.02 1.38a1.953 1.953 0 00-.02.23v10.77A1.611 1.611 0 001.61 14h18.78A1.611 1.611 0 0022 12.38V1.61a1.953 1.953 0 00-.02-.23l-9.3 7.94a2.6 2.6 0 01-3.37 0z" fill="#151515" fill-rule="evenodd"/></symbol><symbol xmlns="http://www.w3.org/2000/svg" viewBox="0 0 22 22.03" id="phone"><path d="M5.98.56l2.63 2.73a1.718 1.718 0 010 2.53l-2 2.1a16.784 16.784 0 007.47 7.57l2.11-2.1a1.835 1.835 0 012.63 0l2.63 2.63a1.853 1.853 0 010 2.63l-2.63 2.63C14.19 25.91-3.8 7.81.72 3.29L3.35.56a1.835 1.835 0 012.63 0z" fill="#151515" fill-rule="evenodd"/></symbol><symbol xmlns="http://www.w3.org/2000/svg" viewBox="0 0 56 50" id="cart"><path d="M1.241 0a1.25 1.25 0 000 2.5h7.7l6.555 31.1a1.553 1.553 0 001.3 1.4h31.12a1.25 1.25 0 100-2.5H17.812l-1.05-5h33.649a1.279 1.279 0 001.205-.97l4.357-18.75a1.312 1.312 0 00-1.206-1.53H12.288L11.18.98A1.3 1.3 0 009.954 0H1.241zm11.573 8.75h11.028l1.147 6.88H14.272zm13.537 0h13.265l-1.148 6.88H27.5zm15.774 0h11.086l-1.6 6.88H40.977zm-27.328 9.38h10.6L26.544 25H16.237zm13.129 0H38.04L36.912 25h-7.858zm12.643 0h10.464L49.419 25h-10zM23.647 38.75a5.625 5.625 0 105.6 5.63 5.631 5.631 0 00-5.6-5.63zm17.428 0a5.625 5.625 0 105.6 5.63 5.632 5.632 0 00-5.6-5.63zm-17.428 2.5a3.125 3.125 0 11-3.112 3.13 3.1 3.1 0 013.112-3.13zm17.428 0a3.125 3.125 0 11-3.112 3.13 3.1 3.1 0 013.112-3.13z" fill="#313131" fill-rule="evenodd"/></symbol><symbol xmlns="http://www.w3.org/2000/svg" viewBox="0 0 60 62" id="lightbulb"><path d="M37.161 50.69H22.712a1.385 1.385 0 01-1.382-1.39v-1.02c0-2.2-1.394-4.44-2.868-6.81-1.96-3.14-4.179-6.71-4.179-11.42a15.533 15.533 0 0131.065 0c0 4.02-1.935 7.36-3.8 10.59-1.544 2.66-3 5.18-3 7.64v1.02a1.383 1.383 0 01-1.387 1.39zm-13.075-2.77h11.7c.116-3.05 1.7-5.78 3.364-8.66 1.69-2.92 3.436-5.94 3.436-9.21a12.769 12.769 0 00-25.537 0c0 3.93 1.912 6.99 3.761 9.96 1.548 2.49 3.152 5.06 3.276 7.91zm12.049 8.56h-12.4a1.385 1.385 0 010-2.77h12.4a1.385 1.385 0 010 2.77zM33.705 62h-7.536a1.38 1.38 0 110-2.76h7.536a1.38 1.38 0 110 2.76zm-3.89-52.31a1.385 1.385 0 01-1.382-1.39V1.38a1.382 1.382 0 112.764 0V8.3a1.385 1.385 0 01-1.382 1.39zm15.678 6.07a1.374 1.374 0 01-.978-.4 1.388 1.388 0 010-1.96l5.1-5.1a1.381 1.381 0 111.955 1.95l-5.1 5.11a1.412 1.412 0 01-.977.4zM9.277 52.21a1.4 1.4 0 01-.955-.38 1.377 1.377 0 01-.045-1.95l5.1-5.35a1.383 1.383 0 112 1.91l-5.1 5.34a1.359 1.359 0 01-1 .43zm49.34-20.78h-6.684a1.38 1.38 0 110-2.76h6.684a1.38 1.38 0 110 2.76zm-50.676 0H1.378a1.38 1.38 0 110-2.76h6.563a1.38 1.38 0 110 2.76zm6.319-15.55a1.374 1.374 0 01-.978-.4l-4.861-4.86a1.384 1.384 0 111.954-1.96l4.861 4.86a1.388 1.388 0 010 1.96 1.369 1.369 0 01-.976.4zm36.215 35.97a1.384 1.384 0 01-.977-.41l-4.861-4.86a1.38 1.38 0 111.954-1.95l4.861 4.86a1.385 1.385 0 01-.977 2.36zM24.118 36.97a1.371 1.371 0 01-.977-.4 9.448 9.448 0 1113.363-13.36 1.38 1.38 0 01-1.954 1.95 6.684 6.684 0 00-9.455 9.45 1.388 1.388 0 010 1.96 1.373 1.373 0 01-.977.4z" fill="#313131" fill-rule="evenodd"/></symbol><symbol xmlns="http://www.w3.org/2000/svg" viewBox="0 0 55 67" id="marketplace"><path fill-rule="evenodd" fill="#313131" d="M52.006 33.953v17.323a1.07 1.07 0 01-1.068 1.065h-11.97v9.12c0 3.052-2.493 5.536-5.557 5.536H5.554c-3.064 0-5.557-2.484-5.557-5.536V5.534c0-3.052 2.493-5.536 5.557-5.536h27.857c3.064 0 5.557 2.484 5.557 5.536v9.155H49.37c.428 0 .784.249.962.639l4.56 10.008a.942.942 0 01.107.425v4.152c0 1.895-1.267 3.492-2.993 4.04zM38.968 50.212h10.901V34.078a4.283 4.283 0 01-2.351-1.361 4.265 4.265 0 01-3.206 1.455 4.262 4.262 0 01-3.206-1.455 4.265 4.265 0 01-3.206 1.455 4.262 4.262 0 01-3.206-1.455 4.266 4.266 0 01-3.207 1.455 4.132 4.132 0 01-3.17-1.455 4.294 4.294 0 01-2.149 1.31l-.202 16.185h1.176V38.82c0-.603.463-1.064 1.068-1.064h5.949c.606 0 1.069.461 1.069 1.064v11.392h3.74zm-9.689-10.327v10.327h3.812V39.885h-3.812zM2.134 61.461a3.414 3.414 0 003.42 3.407h27.857a3.414 3.414 0 003.42-3.407v-3.513H2.134v3.513zm0-5.642h34.697v-3.478H23.793l.012-1.004c-.002-.021-.012-.039-.012-.061V33.957a4.223 4.223 0 01-2.992-4.044v-4.365l.1-.221c.004-.009.002-.018.007-.027l4.524-10.007c.01-.023.028-.041.04-.062l.245-.542h.447a1 1 0 01.229-.035h10.402v-3.513H2.134v44.678zM36.831 5.534a3.414 3.414 0 00-3.42-3.407H5.554a3.414 3.414 0 00-3.42 3.407v3.513h34.697V5.534zm16.03 20.44l-4.168-9.155H27.106l-4.132 9.155v3.939c0 1.034.749 1.899 1.733 2.088.053-.007.099-.029.155-.029.117 0 .222.03.326.063a2.135 2.135 0 002.06-2.122c0-.603.463-1.064 1.069-1.064.606 0 1.069.461 1.069 1.064 0 1.171.962 2.129 2.101 2.129a2.14 2.14 0 002.138-2.129c0-.603.463-1.064 1.069-1.064.605 0 1.068.461 1.068 1.064a2.14 2.14 0 002.138 2.129 2.14 2.14 0 002.137-2.129c0-.603.463-1.064 1.069-1.064.605 0 1.068.461 1.068 1.064a2.14 2.14 0 002.138 2.129 2.14 2.14 0 002.137-2.129c0-.603.463-1.064 1.069-1.064.605 0 1.069.461 1.069 1.064 0 1.137.908 2.065 2.036 2.119.101-.03.202-.06.315-.06.06 0 .11.023.167.032a2.136 2.136 0 001.756-2.091v-3.939zm-3.241.958H26.18a1.047 1.047 0 01-1.069-1.064c0-.604.463-1.065 1.069-1.065h23.44c.605 0 1.068.461 1.068 1.065 0 .603-.463 1.064-1.068 1.064zM15.92 4.434h7.089c.606 0 1.069.461 1.069 1.064 0 .604-.463 1.065-1.033 1.065H15.92a1.047 1.047 0 01-1.068-1.065c0-.603.463-1.064 1.068-1.064zm3.563 58.837c-1.105 0-2.031-.887-2.031-1.987.036-1.101.926-1.988 2.031-1.988a1.987 1.987 0 110 3.975zm17.775-25.515h10.331c.606 0 1.069.461 1.069 1.064v7.914c0 .603-.463 1.065-1.069 1.065H37.258a1.048 1.048 0 01-1.068-1.065V38.82c0-.603.463-1.064 1.068-1.064zm1.069 7.913h8.193v-5.784h-8.193v5.784z"/></symbol><symbol xmlns="http://www.w3.org/2000/svg" viewBox="0 0 73 60" id="retail"><path d="M71.78 36h-1l2.2-13a1.2 1.2 0 00-.27-.98 1.215 1.215 0 00-.93-.42h-3.27l1.95-4.31-2.22-.98-2.39 5.29h-7.61l-2.38-5.29-2.22.98 1.94 4.31h-3.27a1.212 1.212 0 00-1.2 1.4l2.2 13H51.1v-3.6a1.214 1.214 0 00-1.22-1.2h-2.43V20.4a6.015 6.015 0 00-5.11-5.9 8.346 8.346 0 002.67-6.1 8.516 8.516 0 00-17.03 0 8.317 8.317 0 002.68 6.1 6.015 6.015 0 00-5.11 5.9v6h-7.3a1.214 1.214 0 00-1.22 1.2v3.6h-4.86v-8.4h8.51a1.214 1.214 0 001.22-1.2V7.2A1.214 1.214 0 0020.68 6H1.22A1.208 1.208 0 000 7.2v14.4a1.208 1.208 0 001.22 1.2h8.51v8.4H1.22A1.208 1.208 0 000 32.4V54a1.208 1.208 0 001.22 1.2h1.21v3.6A1.214 1.214 0 003.65 60h65.7a1.206 1.206 0 001.21-1.2v-3.6h1.22A1.214 1.214 0 0073 54V37.2a1.214 1.214 0 00-1.22-1.2zM2.43 8.4h17.04v12H2.43v-12zM53.75 24h2.91l1.84 4.09 2.23-.98L59.32 24h5.45l-1.4 3.11 2.22.98L67.43 24h2.91l-2.02 12H55.78zM30.41 8.4a6.086 6.086 0 116.09 6 6.05 6.05 0 01-6.09-6zM19.47 28.8h7.29a1.208 1.208 0 001.22-1.2v-7.2a3.634 3.634 0 013.65-3.6h9.73a3.628 3.628 0 013.65 3.6v10.8h-2.43v-9.6a1.215 1.215 0 00-2.43 0v9.6h-7.3v-9.6a1.22 1.22 0 00-2.44 0v9.6H19.47v-2.4zm48.66 28.8H4.87v-2.4h63.26v2.4zm2.43-4.8H2.43V33.6h46.23v3.6a1.214 1.214 0 001.22 1.2h20.68v14.4z" fill="#313131" fill-rule="evenodd"/></symbol><symbol xmlns="http://www.w3.org/2000/svg" viewBox="0 0 80 77" id="beauty"><path fill-rule="evenodd" fill="#313131" d="M80 25.717c0 1.086-.728 2.02-1.835 2.53.418 1.142.271 2.315-.493 3.079-.468.469-1.122.727-1.842.727-.411 0-.832-.081-1.244-.235-.512 1.102-1.444 1.826-2.523 1.826-1.082 0-2.016-.728-2.526-1.833a3.559 3.559 0 01-1.236.231c-.721 0-1.376-.259-1.844-.728-.766-.766-.911-1.942-.49-3.085-1.102-.512-1.827-1.445-1.827-2.525 0-1.084.728-2.018 1.835-2.529-.419-1.142-.272-2.316.494-3.08.467-.467 1.122-.725 1.843-.725.41 0 .831.08 1.242.233.511-1.101 1.444-1.826 2.523-1.826 1.084 0 2.018.728 2.527 1.832.41-.15.827-.23 1.236-.23.72 0 1.375.258 1.844.727.766.767.911 1.943.489 3.086 1.102.512 1.827 1.445 1.827 2.525zm-3.77-.514a1.212 1.212 0 01-.852-2.065c.59-.601.648-1.202.586-1.319-.002.003-.041-.012-.124-.012-.264 0-.733.157-1.187.602a1.214 1.214 0 01-2.062-.858c-.007-.85-.398-1.315-.521-1.346-.108.031-.498.496-.508 1.344a1.214 1.214 0 01-2.063.852c-.454-.446-.923-.604-1.188-.604-.096 0-.132.02-.133.02-.054.1 0 .705.591 1.309a1.213 1.213 0 01-.855 2.063c-.851.008-1.316.399-1.348.522.032.107.497.498 1.344.507a1.212 1.212 0 01.852 2.065c-.591.602-.647 1.203-.584 1.318.003-.003.04.013.123.013.264 0 .732-.158 1.186-.602a1.213 1.213 0 012.062.856c.008.835.384 1.299.514 1.346.13-.047.505-.51.514-1.342a1.214 1.214 0 012.064-.852c.455.446.925.605 1.189.605.095 0 .132-.02.132-.02.054-.099.002-.704-.592-1.31a1.215 1.215 0 01.857-2.063c.85-.007 1.315-.398 1.347-.522-.032-.108-.496-.498-1.344-.507zM52.699 65.698v7.833A3.472 3.472 0 0149.232 77H36.404a3.472 3.472 0 01-3.467-3.469v-7.833c-2.203-1.152-3.799-3.321-4.084-5.952L22.542 1.344A1.215 1.215 0 0123.749 0h38.137a1.21 1.21 0 011.207 1.344l-6.311 58.402c-.285 2.631-1.881 4.8-4.083 5.952zm-17.336 7.833c0 .574.467 1.041 1.041 1.041h1.733v-3.989a1.214 1.214 0 112.427 0v3.989h4.507v-3.989a1.214 1.214 0 112.427 0v3.989h1.734c.573 0 1.04-.467 1.04-1.041v-6.937H35.363v6.937zM60.534 2.428H25.1l.863 7.977h5.24V6.416a1.213 1.213 0 112.427 0v3.989h2.774V6.416a1.213 1.213 0 112.427 0v3.989h2.773V6.416a1.213 1.213 0 012.427 0v3.989h2.774V6.416a1.213 1.213 0 112.427 0v3.989h2.773V6.416a1.214 1.214 0 012.427 0v3.989h5.24l.862-7.977zM26.225 12.833l5.041 46.652a5.236 5.236 0 005.213 4.681h12.677a5.236 5.236 0 005.213-4.681l.356-3.296H37.617a1.213 1.213 0 010-2.428h17.335c.012 0 .022.007.035.007l4.423-40.935H26.225zm16.593 32.95c-4.569 0-8.148-5.865-8.148-13.353 0-7.488 3.579-13.354 8.148-13.354 4.568 0 8.147 5.866 8.147 13.354 0 7.488-3.579 13.353-8.147 13.353zm0-24.279c-3.101 0-5.721 5.004-5.721 10.926 0 5.922 2.62 10.926 5.721 10.926s5.72-5.004 5.72-10.926c0-5.922-2.619-10.926-5.72-10.926zM15.081 73.531a6.423 6.423 0 01-6.414-6.416 6.423 6.423 0 016.414-6.417 6.422 6.422 0 016.414 6.417 6.422 6.422 0 01-6.414 6.416zm0-10.405a3.993 3.993 0 00-3.987 3.989 3.992 3.992 0 003.987 3.988 3.992 3.992 0 003.987-3.988c0-2.2-1.788-3.989-3.987-3.989zm1.847-15.75c.615 1.408.495 2.886-.438 3.82-.538.538-1.263.822-2.096.822a4.305 4.305 0 01-1.732-.387c-.561 1.429-1.689 2.388-3.007 2.388-1.323 0-2.452-.963-3.012-2.397a4.302 4.302 0 01-1.722.382c-.823 0-1.568-.292-2.098-.824-.935-.936-1.053-2.416-.433-3.827C.96 46.793 0 45.664 0 44.344c0-1.324.963-2.455 2.399-3.014-.616-1.409-.496-2.888.439-3.821.529-.529 1.274-.821 2.097-.821.571 0 1.16.134 1.729.386.561-1.43 1.689-2.389 3.008-2.389 1.324 0 2.454.962 3.013 2.397a4.284 4.284 0 011.721-.382c.822 0 1.568.292 2.098.823.936.936 1.053 2.417.433 3.828 1.43.561 2.39 1.69 2.39 3.01 0 1.325-.964 2.456-2.399 3.015zM14.9 43.4a1.215 1.215 0 01-.852-2.065c.872-.887.975-1.861.74-2.096-.092-.092-.259-.112-.382-.112-.41 0-1.075.223-1.712.847a1.211 1.211 0 01-2.062-.858c-.01-1.242-.628-2.004-.96-2.004-.331 0-.947.76-.96 2.001a1.214 1.214 0 01-2.065.852c-.637-.626-1.302-.85-1.712-.85-.124 0-.29.02-.382.112-.235.235-.134 1.206.734 2.093a1.215 1.215 0 01-.856 2.063c-1.244.012-2.005.629-2.005.96 0 .331.759.947 2 .961a1.213 1.213 0 01.852 2.065c-.871.886-.973 1.86-.738 2.095.097.098.28.112.381.112.409 0 1.074-.222 1.711-.846a1.213 1.213 0 012.063.856c.011 1.244.628 2.006.96 2.006.331 0 .946-.76.96-2.001a1.212 1.212 0 012.064-.852c.638.627 1.304.851 1.715.851.123 0 .288-.02.38-.111.234-.235.133-1.208-.735-2.095a1.215 1.215 0 01.857-2.063c1.243-.011 2.004-.628 2.004-.961 0-.331-.759-.946-2-.96zm-2.419-18.427a3.82 3.82 0 01-3.814-3.816 3.82 3.82 0 013.814-3.815 3.82 3.82 0 013.814 3.815 3.82 3.82 0 01-3.814 3.816zm0-5.203c-.765 0-1.387.623-1.387 1.387a1.39 1.39 0 001.387 1.388 1.39 1.39 0 001.387-1.388c0-.764-.622-1.387-1.387-1.387zM68.82 52.027c2.581 0 4.681 2.1 4.681 4.682 0 2.582-2.1 4.683-4.681 4.683a4.687 4.687 0 01-4.68-4.683c0-2.582 2.1-4.682 4.68-4.682zm0 6.937a2.257 2.257 0 002.254-2.255 2.256 2.256 0 00-2.254-2.254 2.256 2.256 0 00-2.253 2.254 2.257 2.257 0 002.253 2.255z"/></symbol><symbol xmlns="http://www.w3.org/2000/svg" viewBox="0 0 53 61.97" id="intimacy"><path fill-rule="evenodd" fill="#313131" d="M51.473 10.181a1.514 1.514 0 01-1.479-1.545V5.219l-7.033 7.146a15.903 15.903 0 013.479 11.409c-.615 6.953-5.677 12.678-12.416 14.039a1.485 1.485 0 01-1.379-.417 1.543 1.543 0 01.011-2.156c.213-.214.484-.359.779-.415 5.448-1.1 9.52-5.701 10.017-11.321.498-5.62-2.698-10.887-7.865-12.957-5.167-2.07-11.043-.44-14.455 4.012a1.485 1.485 0 01-2.099.313 1.54 1.54 0 01-.268-2.184c4.222-5.509 11.528-7.536 17.921-4.975a15.397 15.397 0 014.157 2.494l7.031-7.143h-3.363a1.512 1.512 0 01-1.521-1.545A1.512 1.512 0 0144.511.017h6.983c.829 0 1.5.682 1.5 1.524v7.138a1.512 1.512 0 01-1.521 1.502zM30.997 32.015c0 8.163-6.157 14.897-13.998 15.667v8.204h3.031c.828.012 1.49.704 1.478 1.546a1.51 1.51 0 01-1.521 1.502h-2.988v1.508a1.511 1.511 0 01-1.521 1.545A1.513 1.513 0 0114 60.442v-1.508h-3.026a1.513 1.513 0 01-1.479-1.545 1.512 1.512 0 011.521-1.503H14v-8.204C6.159 46.912.002 40.178.002 32.015c0-8.678 6.956-15.745 15.498-15.745 8.541 0 15.497 7.067 15.497 15.745zM15.5 19.317c-6.921 0-12.499 5.667-12.499 12.698 0 7.031 5.578 12.697 12.499 12.697 6.92 0 12.498-5.666 12.498-12.697 0-7.031-5.578-12.698-12.498-12.698zm10.074 16.214a1.488 1.488 0 01-2.089.609 15.53 15.53 0 01-3.232-2.424v.001a15.863 15.863 0 01-4.75-10.813 1.516 1.516 0 011.447-1.578 1.512 1.512 0 011.553 1.47c.15 4.464 2.589 8.514 6.434 10.679a1.536 1.536 0 01.637 2.056z"/></symbol><symbol xmlns="http://www.w3.org/2000/svg" viewBox="0 0 74.969 75" id="pain"><path d="M74.72 53.14a57.024 57.024 0 00-2.455-9.72 24.493 24.493 0 01-.55-3.01c-.164-1.07-.328-2.17-.522-3.15a73.18 73.18 0 01-1.171-8.56c0-.16.041-.59.088-1.02.252-2.29.767-7.03-.75-11.14a16.831 16.831 0 00-8.2-9.42c-1.054-.53-3.591-1.58-6.274-2.69s-6.256-2.59-6.918-2.99l-1.1-1.11a1.171 1.171 0 00-1.658 1.65l1.172 1.18c.416.42 1.634.97 7.657 3.46 2.524 1.05 5.143 2.13 6.121 2.62a14.485 14.485 0 017.03 8.15c1.324 3.51.85 7.92.621 10.04-.064.58-.105.98-.105 1.27a73.772 73.772 0 001.171 9.01c.188.93.352 2.01.5 3.05a15.379 15.379 0 00.773 3.69 60.943 60.943 0 012.232 9.02c.586 3.96 0 20.14 0 20.3a1.178 1.178 0 001.125 1.22h.047a1.172 1.172 0 001.172-1.13c.029-.68.586-16.56-.006-20.72zm-9.373 7.03c-.141-.97-.311-2.11-.492-3.3a99.255 99.255 0 01-1.254-10.01c0-1.44-1.242-5.55-2.993-11.21-.774-2.49-1.647-5.28-1.693-5.78a1.172 1.172 0 00-2.344 0c0 .58.4 1.96 1.529 5.6-1.857 4.36-2.7 13.15-2.7 15.49 0 .68.123 1.72.263 2.93a35.193 35.193 0 01.323 3.52c0 4.97.076 9.8.644 11.5a46.864 46.864 0 011.125 5.1 1.18 1.18 0 001.171.98h.194a1.178 1.178 0 00.966-1.35 47.557 47.557 0 00-1.218-5.45c-.522-1.58-.522-8.25-.522-10.76a36.524 36.524 0 00-.345-3.82c-.129-1.04-.252-2.11-.252-2.65a62.34 62.34 0 011.558-11.59 52.39 52.39 0 011.957 7.49c0 1.88.679 6.38 1.277 10.36.181 1.17.351 2.32.492 3.28.586 4.1 2.853 13.21 2.929 13.6a1.177 1.177 0 001.137.89 1.4 1.4 0 00.287-.04 1.17 1.17 0 00.856-1.42c-.013-.09-2.327-9.37-2.895-13.36zM29.8 1.98A1.176 1.176 0 0028.125.33l-1.113 1.11c-.645.4-4.283 1.91-6.954 3.01s-5.22 2.16-6.274 2.69a16.822 16.822 0 00-8.2 9.43c-1.476 4.05-.972 8.82-.72 11.11.047.44.088.86.088 1.02a73.182 73.182 0 01-1.172 8.56c-.193.98-.357 2.08-.521 3.15a25.3 25.3 0 01-.545 3 59.865 59.865 0 00-2.437 9.73c-.586 4.16-.035 20.04 0 20.72a1.172 1.172 0 001.171 1.13h.047a1.178 1.178 0 001.125-1.22c0-.16-.586-16.34 0-20.3a61.308 61.308 0 012.232-9.02 15.276 15.276 0 00.773-3.69c.153-1.04.317-2.12.5-3.05a73.774 73.774 0 001.172-9.01c0-.29-.041-.68-.106-1.27-.228-2.12-.7-6.51.621-10.04a14.492 14.492 0 017.03-8.15c.979-.47 3.6-1.57 6.128-2.62 6.022-2.49 7.241-3.04 7.657-3.46zM18.424 29.87a1.172 1.172 0 00-2.344 0c-.052.52-.925 3.34-1.7 5.82-1.758 5.66-2.994 9.78-2.994 11.22 0 1.7-.691 6.3-1.254 10.01-.181 1.17-.351 2.34-.492 3.3-.586 3.99-2.882 13.27-2.929 13.35a1.174 1.174 0 00.908 1.38 1.388 1.388 0 00.287.04 1.178 1.178 0 001.137-.89c.093-.39 2.343-9.49 2.929-13.6a493 493 0 01.492-3.28c.586-3.98 1.277-8.48 1.277-10.36a52.39 52.39 0 011.957-7.49 62.332 62.332 0 011.552 11.59c0 .54-.123 1.61-.252 2.65a36.4 36.4 0 00-.334 3.8c0 2.51 0 9.19-.521 10.76a47.56 47.56 0 00-1.219 5.45 1.177 1.177 0 00.965 1.35h.2a1.172 1.172 0 001.172-.98 46.63 46.63 0 011.125-5.1c.585-1.7.644-6.53.644-11.5.045-1.17.149-2.34.31-3.5.141-1.2.264-2.24.264-2.93 0-2.34-.814-11.13-2.7-15.49 1.12-3.64 1.519-5.02 1.519-5.6zm27.785-17.93a1.175 1.175 0 000 1.66 12.311 12.311 0 010 17.4 1.175 1.175 0 000 1.66 1.163 1.163 0 001.653-.01 14.655 14.655 0 000-20.71 1.186 1.186 0 00-1.657 0zM28.816 13.6a1.172 1.172 0 00-1.652-1.66 14.648 14.648 0 000 20.71 1.173 1.173 0 001.658-1.66 12.3 12.3 0 01-.007-17.39zm17.3 12.99a9.635 9.635 0 00-4.317-12.89 1.177 1.177 0 00-1.043 2.11 7.282 7.282 0 013.263 9.75 1.167 1.167 0 00.5 1.55 1.086 1.086 0 00.527.13 1.157 1.157 0 001.074-.65zm-11.857 2.22a7.287 7.287 0 01-3.257-9.76 1.174 1.174 0 00-2.1-1.05 9.616 9.616 0 004.311 12.89 1.069 1.069 0 00.522.13 1.175 1.175 0 001.17-1.18 1.156 1.156 0 00-.649-1.04v.01zm5.343-10.71a4.692 4.692 0 00-6.286 2.11 4.681 4.681 0 002.1 6.28 4.568 4.568 0 002.08.5 4.69 4.69 0 004.452-6.18 4.634 4.634 0 00-2.342-2.71zm0 5.24a2.346 2.346 0 01-4.2-2.09 2.335 2.335 0 014.428 1.05 2.325 2.325 0 01-.245 1.04h.012z" fill="#313131" fill-rule="evenodd"/></symbol><symbol xmlns="http://www.w3.org/2000/svg" viewBox="0 0 53.97 66.97" id="pet"><path fill-rule="evenodd" fill="#313131" d="M53.882 27.71a1.315 1.315 0 01-1.731.642 11.88 11.88 0 00-3.824-.983c-.178 5.452-2.567 9.793-6.728 12.656 4.019 3.868 6.311 9.13 6.311 14.713v10.957c0 .712-.585 1.288-1.308 1.288a1.298 1.298 0 01-1.309-1.288V54.738c0-5.116-2.203-9.921-6.036-13.342-3.327 1.629-7.464 2.514-12.275 2.514-4.814 0-8.953-.886-12.28-2.516-3.834 3.421-6.037 8.226-6.037 13.344v10.957c0 .712-.585 1.288-1.308 1.288a1.298 1.298 0 01-1.308-1.288V54.738c0-5.585 2.292-10.848 6.311-14.715-4.157-2.861-6.544-7.197-6.725-12.643a11.851 11.851 0 00-3.764.972A1.315 1.315 0 01.14 27.71a1.28 1.28 0 01.653-1.704A14.675 14.675 0 015.6 24.778V14.454C5.6 6.665 7.366.742 9.047.144L9.042.125c5.035-1.093 10.517 4.844 12.351 7.054 1.92-.526 6.54-1.463 11.167.046C34.218 5.069 39.024-.405 44.758.1c.432.038.815.284 1.026.657.105.186 2.578 4.667 2.578 13.697v10.321c1.561.12 3.198.488 4.867 1.231a1.28 1.28 0 01.653 1.704zm-8.136-13.256c0-6.433-1.343-10.356-1.954-11.809-5.131.175-9.612 6.767-9.659 6.837a1.322 1.322 0 01-1.589.481c-5.296-2.139-11.117-.103-11.175-.082a1.324 1.324 0 01-1.493-.436c-1.566-2.044-6.214-7.057-9.718-6.875-.576 1.194-1.942 4.78-1.942 11.884v10.341c5.211.468 9.065 3.372 9.293 3.548.569.438.669 1.248.223 1.808a1.31 1.31 0 01-1.03.494c-.282 0-.565-.089-.804-.273-.047-.036-3.3-2.477-7.642-2.966.203 5.056 2.611 8.925 6.837 11.285l.012.006c3.067 1.709 7.067 2.638 11.877 2.638 4.81 0 8.81-.93 11.876-2.638l.006-.004c4.229-2.358 6.638-6.229 6.842-11.286-4.319.501-7.533 2.928-7.58 2.963a1.305 1.305 0 01-.805.275c-.389 0-.773-.169-1.031-.494a1.273 1.273 0 01.224-1.808c.226-.176 4.05-3.061 9.232-3.546V14.454zm-13.15 10.802c-1.356 0-2.455-1.082-2.455-2.417 0-1.335 1.099-2.417 2.455-2.417s2.456 1.082 2.456 2.417c0 1.335-1.1 2.417-2.456 2.417zm-7.51 3.913c0-.403.333-.73.742-.73h2.305c.411 0 .743.327.743.73l-1.896 1.317-1.894-1.317zm-3.723-3.913c-1.356 0-2.455-1.082-2.455-2.417 0-1.335 1.099-2.417 2.455-2.417s2.456 1.082 2.456 2.417c0 1.335-1.1 2.417-2.456 2.417z"/></symbol></svg>